<svg width="24" height="24" viewBox="0 0 24 24" fill="none" xmlns="http://www.w3.org/2000/svg">
<path d="M22.2691 0H1.7309C0.774902 0 0 0.765439 0 1.70976V21.9972C0 22.9415 0.774902 23.7069 1.7309 23.7069H12.8203V14.539H9.70312V10.9506H12.8203V8.30968C12.8203 5.2472 14.7131 3.58031 17.4787 3.58031C18.8033 3.58031 19.9417 3.6778 20.2734 3.72139V6.92223H18.3664C16.8616 6.92223 16.5703 7.62853 16.5703 8.66509V10.9506H20.168L19.6992 14.539H16.5703V23.7069H22.2691C23.2251 23.7069 24 22.9415 24 21.9972V1.70976C24 0.765439 23.2251 0 22.2691 0V0Z" fill="#FAB612"/>
</svg>
