<svg width="24" height="24" viewBox="0 0 24 24" fill="none" xmlns="http://www.w3.org/2000/svg">
<path d="M22.2691 0H1.7309C0.774902 0 0 0.765439 0 1.70976V21.9972C0 22.9415 0.774902 23.7069 1.7309 23.7069H22.2691C23.2251 23.7069 24 22.9415 24 21.9972V1.70976C24 0.765439 23.2251 0 22.2691 0V0ZM8.51294 17.9191H5.59039V9.23392H8.51294V17.9191ZM7.05176 8.04796H7.03271C6.052 8.04796 5.41772 7.3811 5.41772 6.54765C5.41772 5.6954 6.07141 5.04698 7.07117 5.04698C8.07092 5.04698 8.68616 5.6954 8.7052 6.54765C8.7052 7.3811 8.07092 8.04796 7.05176 8.04796ZM19.051 17.9191H16.1288V13.2727C16.1288 12.105 15.7057 11.3087 14.6483 11.3087C13.8409 11.3087 13.3601 11.8459 13.1488 12.3644C13.0715 12.55 13.0527 12.8093 13.0527 13.0689V17.9191H10.1303C10.1303 17.9191 10.1686 10.0487 10.1303 9.23392H13.0527V10.4637C13.441 9.87185 14.1359 9.03008 15.6865 9.03008C17.6093 9.03008 19.051 10.2714 19.051 12.939V17.9191Z" fill="#FAB612"/>
</svg>
