<svg width="146" height="34" viewBox="0 0 146 34" fill="none" xmlns="http://www.w3.org/2000/svg">
<path d="M10.28 24.928V28.96H6.2V5.68H10.28V10.768L15.56 8.128V5.2C15.56 3.952 15.128 2.848 14.264 1.984C13.4 1.12 12.392 0.639997 11.24 0.639997H5.24C4.04 0.639997 3.032 1.12 2.168 1.984C1.304 2.848 0.92 3.952 0.92 5.2V29.44C0.92 30.688 1.304 31.792 2.168 32.656C3.032 33.568 4.04 34 5.24 34H11.24C12.392 34 13.4 33.568 14.264 32.704C15.128 31.84 15.56 30.736 15.56 29.44V22.288L10.28 24.928ZM33.56 5.2C33.56 3.952 33.128 2.848 32.264 1.984C31.4 1.12 30.392 0.639997 29.24 0.639997H23.24C22.04 0.639997 21.032 1.12 20.168 1.984C19.304 2.848 18.92 3.952 18.92 5.2V29.44C18.92 30.688 19.304 31.792 20.168 32.656C21.032 33.568 22.04 34 23.24 34H29.24C30.392 34 31.4 33.568 32.264 32.704C33.128 31.84 33.56 30.736 33.56 29.44V5.2ZM28.28 28.96H24.2V5.68H28.28V28.96ZM37.3888 34H47.7088C48.8608 34 49.8688 33.568 50.7328 32.704C51.5968 31.84 52.0288 30.736 52.0288 29.44V5.2C52.0288 3.952 51.5968 2.848 50.7328 1.984C49.8688 1.12 48.8608 0.639997 47.7088 0.639997H37.3888V34ZM46.7488 28.96H42.6688V5.68H46.7488V28.96ZM68.5775 5.68V0.639997H60.1775C58.9775 0.639997 57.9695 1.12 57.1055 1.984C56.2415 2.848 55.8575 3.952 55.8575 5.2V34H68.5775V28.96H61.1375V20.56L68.5775 16.72V10.816L61.1375 14.656V5.68H68.5775Z" fill="white"/>
<path d="M71.9356 34H82.2556C83.4076 34 84.4156 33.568 85.2796 32.704C86.1436 31.84 86.5756 30.736 86.5756 29.44V5.2C86.5756 3.952 86.1436 2.848 85.2796 1.984C84.4156 1.12 83.4076 0.639997 82.2556 0.639997H71.9356V34ZM81.2956 28.96H77.2156V5.68H81.2956V28.96ZM105.044 0.639997H99.7644V28.96H95.6844V0.639997H90.4044V29.44C90.4044 30.688 90.7884 31.792 91.6524 32.656C92.5164 33.568 93.5244 34 94.7244 34H100.724C101.876 34 102.884 33.568 103.748 32.704C104.612 31.84 105.044 30.736 105.044 29.44V0.639997ZM118.233 24.928V28.96H114.153V5.68H118.233V10.768L123.513 8.128V5.2C123.513 3.952 123.081 2.848 122.217 1.984C121.353 1.12 120.345 0.639997 119.193 0.639997H113.193C111.993 0.639997 110.985 1.12 110.121 1.984C109.257 2.848 108.873 3.952 108.873 5.2V29.44C108.873 30.688 109.257 31.792 110.121 32.656C110.985 33.568 111.993 34 113.193 34H119.193C120.345 34 121.353 33.568 122.217 32.704C123.081 31.84 123.513 30.736 123.513 29.44V22.288L118.233 24.928ZM145.353 34L137.289 14.176L143.529 0.639997H137.769L132.153 13.792V0.639997H126.873V34H132.153V25.024L134.553 20.08L139.689 34H145.353Z" fill="#FAB612"/>
</svg>
